PathFileType	4	(X/Y/Z)	C:/Users/beibeiliu/ov580/test_trc/capture2\sequence.20_training_dense_left.trc
DataRate	CameraRate	NumFrames	NumMarkers	Units	OrigDataRate	OrigDataStartFrame	OrigNumFrames
120	120	22	19	mm	120	169	337
Frame#	Time	ThumbCMC			ThumbMCP			ThumbIP			ThumbTip			IndexMCP			IndexPIP			IndexTip			MiddleMCP			MiddlePIP			MiddleTip			RingMCP			RingPIP			RingTip			PinkyMCP			PinkyPIP			PinkyTip			BackHand1			BackHand2			BackHand3	
		X0	Y0	Z0	X1	Y1	Z1	X2	Y2	Z2	X3	Y3	Z3	X4	Y4	Z4	X5	Y5	Z5	X6	Y6	Z6	X7	Y7	Z7	X8	Y8	Z8	X9	Y9	Z9	X10	Y10	Z10	X11	Y11	Z11	X12	Y12	Z12	X13	Y13	Z13	X14	Y14	Z14	X15	Y15	Z15	X16	Y16	Z16	X17	Y17	Z17	X18	Y18	Z18	
168	1.4	-148.591	32.5606	60.5491	-124.99	22.2548	47.5531	-102.157	34.8074	30.2643	-91.7329	50.5859	12.492	-84.5125	64.0686	43.5354	-62.3568	72.996	30.0622	-43.5409	82.6052	18.6658	-85.1977	82.1693	29.621	-65.6658	88.7104	18.5821	-38.1135	99.0495	7.67155	-95.9067	92.2582	16.456	-76.0487	95.7066	8.56762	-56.8162	103.084	-0.73869	-117.769	96.2563	8.3922	-95.8502	101.091	0.773939	-78.8827	109.352	-2.82084	-144.337	90.3365	41.5521	-169.173	87.5933	53.0169	-142.11	66.3648	68.8852	
169	1.40833	-150.928	27.5822	64.0409	-123.988	25.6814	47.4972	-101.995	35.2981	32.1096	-94.1478	48.2895	15.7366	-84.1008	62.6268	45.275	-60.8118	68.3581	34.6937	-42.8262	77.1846	22.4411	-87.3082	82.6084	30.3116	-61.3981	85.0405	21.2678	-40.2698	93.8544	11.617	-99.1968	90.0462	20.0581	-77.8958	98.1771	8.35015	-51.7072	105.649	-0.731625	-114.674	93.3396	11.1887	-96.8695	101.074	-0.884666	-77.0649	109.746	-4.20001	-143.119	87.9445	42.7016	-168.326	86.2346	57.4241	-142.059	67.5171	67.7497	
170	1.41667	-147.298	28.942	63.7381	-122.192	19.2469	49.5088	-101.889	28.6285	34.9799	-92.5296	49.0372	14.4015	-81.8692	62.1463	44.4832	-62.1334	67.2528	35.0839	-41.6456	77.1483	22.8435	-84.1789	81.7488	31.3491	-59.872	83.4277	23.5433	-40.5293	93.8636	9.9711	-93.9775	91.5428	18.2867	-72.7712	95.164	10.0131	-53.7088	100.54	1.95814	-115.881	95.8105	10.0517	-96.7918	96.6483	3.06363	-71.4885	106.161	-2.48145	-143.74	89.3808	40.677	-168.322	87.7096	55.4299	-142.934	66.4458	68.6132	
171	1.425	-149.869	27.4785	64.9561	-125.262	21.2837	48.73	-102.786	32.075	33.55	-94.4217	45.5161	18.5985	-81.5006	59.859	45.1573	-63.7862	66.3036	34.1271	-41.8094	76.654	24.3098	-84.7611	79.2533	33.081	-64.7004	81.5013	24.0861	-37.5493	91.1295	12.715	-95.8866	87.1483	21.9804	-77.622	92.8486	12.091	-50.2267	99.919	3.12893	-116.861	93.8104	11.1973	-94.6036	96.9795	4.23766	-74.9199	103.435	-0.0635966	-139.932	89.2392	40.6683	-169.68	85.7645	58.3962	-142.844	61.3513	70.402	
172	1.43333	-150.293	27.4023	65.055	-123.51	17.418	50.6813	-101.864	30.9953	34.9463	-90.1141	43.9501	16.8781	-85.9124	57.4544	45.5986	-65.6645	64.2463	33.8373	-46.0941	72.355	28.4654	-88.5031	78.6243	32.0078	-63.6012	80.9635	23.662	-36.8233	91.5357	11.627	-93.7375	86.8037	21.7788	-74.3746	92.3895	11.3273	-53.6342	99.9442	1.48208	-117.449	94.8008	9.45984	-94.1373	96.6823	2.90065	-71.5105	106.696	-0.937544	-139.876	85.3786	44.025	-168.012	86.0433	56.3381	-145.61	65.3923	68.5208	
173	1.44167	-149.48	30.9902	64.1303	-124.045	23.6375	48.9377	-98.5112	30.6563	34.0046	-93.7072	47.0222	16.9214	-86.6008	59.1867	40.2677	-65.1148	63.016	29.8037	-53.9324	76.1186	26.392	-88.8927	80.2848	31.5966	-62.9329	85.2175	21.7343	-37.0573	93.0378	11.0643	-99.612	87.0917	21.1297	-79.6879	96.6253	9.54841	-53.2484	99.5773	3.80296	-117.318	94.0309	11.1407	-96.031	96.6319	2.78915	-74.8717	108.151	-2.24661	-143.3	86.2365	46.266	-166.98	83.7118	55.4684	-141.095	63.5779	70.8204	
174	1.45	-145.223	32.6511	62.8553	-120.887	28.3312	47.8382	-95.3974	34.3956	32.5804	-97.3429	53.8612	14.8484	-84.8654	61.4013	36.9343	-82.4385	59.7473	26.352	-62.5311	78.623	27.6485	-89.6497	87.2146	31.0054	-62.9538	94.4113	16.8003	-45.5312	100.251	6.48833	-101.431	96.5238	17.7102	-76.9994	99.9096	8.60614	-57.3442	106.797	-1.27673	-120.557	98.1489	8.61702	-99.553	100.381	1.98218	-79.5321	111.181	-4.47695	-143.598	91.8426	40.8589	-169.054	86.3809	55.0514	-141.814	66.775	69.0139	
175	1.45833	-147.342	34.2517	63.8596	-117.277	30.3428	48.0778	-99.3612	42.5681	30.9869	-91.7238	58.6253	11.8919	-87.8424	71.4221	33.3153	-72.2741	71.8276	25.1561	-58.6294	88.0155	23.8612	-91.9851	93.6113	26.9079	-73.2747	100.964	15.9931	-46.3832	112.077	3.11629	-104.969	99.412	16.1469	-82.5597	106.018	7.11343	-63.9852	115.126	-1.90632	-124.271	103.076	6.62457	-105.974	106.584	-0.626396	-84.7665	119.005	-4.8284	-150.659	90.295	42.2514	-171.072	84.9174	55.5624	-144.592	69.4959	68.5703	
176	1.46667	-140.52	39.5015	61.6509	-114.719	37.0681	46.314	-97.4909	49.7692	29.4824	-92.2882	67.1475	11.1499	-89.8072	82.3078	34.2535	-70.5848	91.9712	19.9971	-57.4709	104.377	15.4816	-95.0921	101.185	23.5424	-76.1299	108.181	13.2813	-51.0336	123.511	0.504175	-109.661	106.374	12.5434	-91.714	117.115	2.22146	-66.4937	127.548	-6.93638	-127.239	104.55	6.99423	-108.858	116.068	-5.50379	-91.1571	128.369	-10.0136	-152.847	95.3775	38.9808	-173.902	87.8227	53.4086	-141.501	74.8102	66.4804	
177	1.475	-136.89	42.3407	63.7025	-111.14	44.8461	45.4014	-96.658	58.7123	29.8178	-95.1135	79.6997	8.9976	-88.3126	94.3297	33.86	-74.157	105.227	19.5182	-56.6962	119.997	6.89611	-101.382	108.023	21.6982	-79.9395	122.302	6.96904	-62.4287	135.686	-6.24253	-111.907	112.769	12.1647	-98.7905	125.165	-0.727974	-75.5164	140.051	-11.8033	-137.99	110.273	2.43427	-118.754	122.349	-7.56195	-98.9052	138.483	-15.0584	-153.089	100.382	35.7908	-179.449	88.2521	51.7533	-145.504	80.4191	65.0472	
178	1.48333	-133.381	49.0071	62.2385	-112.92	56.8718	43.6808	-92.7879	72.1202	26.6838	-93.5313	88.5398	7.3855	-94.6731	103.052	32.0101	-81.6987	119.15	15.1658	-63.9599	135.555	0.421104	-101.919	119.752	19.0668	-86.2629	133.316	3.51823	-71.093	149.418	-11.0836	-120.285	120.166	9.77256	-107.774	137.442	-6.70129	-87.7573	150.952	-15.4441	-141.903	117.792	-0.261218	-126.863	126.745	-8.50627	-108.992	145.086	-16.9054	-159.142	103.086	33.0853	-176.181	90.532	52.7178	-144.704	84.9873	64.9002	
179	1.49167	-131.998	55.4378	60.7215	-109.488	62.5278	43.6674	-97.3097	83.2226	23.4837	-99.5039	97.2788	5.91586	-99.8112	118.836	25.2855	-87.7293	130.491	14.1384	-82.2062	147.934	-5.4403	-112.284	127.907	16.2027	-100.284	143.042	0.826527	-88.187	162.518	-16.9136	-132.764	128.423	3.56152	-118.583	143.631	-7.79575	-102.532	163.291	-21.6053	-149.371	122.69	-3.65843	-134.29	135.682	-12.985	-123.087	153.545	-23.0417	-165.058	104.443	32.967	-179.924	88.3032	52.0627	-148.949	89.8745	62.1442	
180	1.5	-129.255	65.6896	57.7333	-107.313	73.4784	40.429	-96.8062	97.5232	17.6389	-107.685	110.862	-2.41527	-112.118	126.812	22.3954	-100.522	145.318	4.3398	-91.9779	162.674	-9.7422	-120.038	139.508	10.0116	-111.017	156.886	-5.71942	-103.115	176.291	-22.0382	-140.209	137.971	-0.365139	-129.836	150.55	-9.76823	-118.677	172.395	-26.6476	-154.079	124.222	-4.59143	-145.748	138.963	-15.9824	-137.849	158.852	-26.4836	-164.868	107.983	32.4606	-182.359	94.0945	48.0876	-151.992	94.8997	56.7693	
181	1.50833	-128.253	75.0252	54.6929	-104.523	88.1316	35.9197	-99.0905	105.623	16.1359	-112.69	118.785	-6.37992	-117.281	140.331	17.7962	-111.897	153.123	2.39835	-104.596	175.113	-15.9843	-133.023	144.96	6.10929	-124.145	161.65	-7.54769	-121.009	186.089	-28.437	-151.177	136.714	-3.27142	-141.057	159.023	-17.9212	-134.022	175.878	-31.1124	-166.072	122.566	-10.1971	-152.569	142.04	-20.0643	-150.4	163.229	-32.4681	-170.069	108.649	29.3543	-185.326	88.4546	46.6698	-153.423	103.169	52.3657	
182	1.51667	-128.564	79.469	54.6958	-106.707	96.7057	33.9676	-104.058	115.756	10.6245	-117.033	123.154	-9.39224	-127.269	144.312	15.718	-122.752	160.403	-1.16353	-121.886	181.164	-20.8263	-142.491	149.278	2.73052	-139.128	169.859	-16.4255	-138.04	186.402	-31.8132	-153.983	141.47	-6.67492	-152.304	159.08	-22.903	-149.555	180.902	-40.2013	-169.53	123.49	-13.3412	-167.355	138.076	-26.8508	-162.568	161.646	-39.2749	-175.785	105.716	24.169	-185.611	86.5773	45.7623	-156.806	103.729	52.057	
183	1.525	-129.644	87.3512	52.4782	-108.544	104.013	31.71	-108.328	121.652	8.80531	-127.74	122.587	-12.5638	-138.748	148.208	8.75346	-133.303	168.798	-8.68634	-135.705	182.875	-24.0548	-154.462	146.524	-2.54979	-152.021	169.531	-22.382	-152.774	188.654	-40.2856	-164.264	136.894	-11.8633	-165.213	155.762	-30.1292	-161.924	174.947	-43.842	-175.837	116.841	-16.8914	-170.338	135.919	-29.7587	-174.432	155.369	-39.4076	-177.013	102.496	24.755	-188.626	83.6063	41.6632	-161.403	103.884	50.4404	
184	1.53333	-129.018	95.8707	50.0143	-111.636	110.618	28.9489	-115.257	124.906	4.82476	-128.82	125.676	-15.0992	-147.366	148.15	4.85777	-145.784	164.668	-12.3608	-152.588	178.906	-31.766	-163.254	147.737	-11.5709	-161.588	164.853	-24.4377	-165.958	184.001	-44.1062	-173.047	134.944	-19.0976	-172.511	150.561	-33.5761	-175.947	171.355	-51.4527	-179.497	113.954	-20.871	-178.05	131.265	-33.5513	-185.337	147.397	-48.4092	-181.276	100.115	19.4375	-184.639	79.2066	40.1998	-163.623	106.876	45.7724	
185	1.54167	-129.955	99.4148	46.9709	-116.71	117.39	24.4033	-121.596	131.231	-1.57207	-137.482	123.394	-21.2811	-157.026	149.99	-2.56039	-158.823	162.807	-19.7943	-166.092	175.361	-39.7065	-170.116	146.089	-13.6366	-173.623	158.375	-33.4496	-180.347	176.085	-52.9254	-177.378	126.719	-20.9975	-180.514	143.621	-36.523	-185.632	162.475	-56.9751	-180.008	105.409	-21.7539	-185.667	123.666	-41.2559	-191.794	139.331	-52.6945	-182.557	96.3704	16.2831	-182.456	79.0991	36.2883	-165.613	107.007	42.1485	
186	1.55	-131.875	105.272	45.4	-120.848	122.456	19.7759	-123.978	134.12	-6.77011	-138.88	123.9	-26.7643	-164.604	144.178	-6.79586	-171.121	161.344	-30.4168	-178.214	169.456	-46.7292	-178.832	134.993	-19.9908	-183.961	153.71	-41.2866	-193.365	167.008	-60.6778	-183.909	124.298	-28.0236	-191.501	135.407	-46.8108	-199.178	152.088	-67.4282	-186.974	98.9114	-30.8379	-189.141	113.997	-43.2264	-199.287	132.835	-58.3113	-185.685	86.2659	10.8923	-184.713	74.1822	33.8611	-168.475	103.902	40.7576	
187	1.55833	-138.47	104.443	39.3492	-128.387	123.062	16.9215	-132.793	133.898	-11.9169	-146.926	121.759	-32.7318	-175.446	141.091	-15.6533	-180.265	153.457	-32.2926	-191.578	163.136	-57.5864	-186.804	133.517	-26.5582	-194.735	141.769	-47.7174	-203.376	154.108	-68.1872	-190.286	116.829	-31.8889	-197.272	127.194	-50.6939	-206.29	137.704	-70.5847	-190.103	90.5226	-34.007	-196.378	102.785	-49.8858	-206.95	117.615	-65.394	-184.829	87.4741	7.22631	-183.643	67.8303	29.7248	-175.654	100.914	31.9555	
188	1.56667	-143.718	108.96	36.4129	-136.37	128.72	11.1972	-143.235	134.597	-17.2479	-153.89	115.064	-36.0915	-184.659	135.357	-19.7838	-191.559	146.18	-39.1678	-203.412	150.383	-64.399	-194.555	119.118	-30.5059	-202.85	132.499	-52.6707	-216.199	144.924	-78.6538	-197.114	103.599	-37.3425	-206.414	112.964	-57.8811	-215.274	126.167	-79.4907	-192.455	84.6883	-36.8649	-199.58	90.2591	-52.9947	-212.164	100.627	-70.5824	-191.3	77.8762	2.73358	-183.458	63.5153	32.1878	-180.644	99.3984	27.9148	
189	1.575	-149.755	110.044	32.289	-145.795	125.072	7.50209	-149.449	133.009	-20.3322	-159.315	111.998	-41.7283	-191.522	129.73	-21.4997	-201.866	138.225	-45.1198	-212.544	141.834	-66.7714	-201.286	113.139	-34.1276	-211.416	119.609	-57.4366	-224.106	127.515	-83.8812	-201.369	98.2237	-39.7789	-213.108	101.565	-63.6487	-223.199	112.943	-84.3806	-195.461	74.7181	-38.9098	-200.884	83.1881	-54.9274	-216.433	91.8027	-74.6235	-190.969	73.6285	6.78521	-185.118	59.954	31.7175	-181.565	96.763	27.2908	
